<svg xmlns="http://www.w3.org/2000/svg" xmlns:xlink="http://www.w3.org/1999/xlink" width="400" zoomAndPan="magnify" viewBox="0 0 300 299.999988" height="400" preserveAspectRatio="xMidYMid meet" version="1.0"><defs><clipPath id="6bb93d890a"><path d="M 42.65625 41.980469 L 98.90625 41.980469 L 98.90625 98.230469 L 42.65625 98.230469 Z M 42.65625 41.980469 " clip-rule="nonzero"/></clipPath><clipPath id="d253f908a2"><path d="M 70.78125 41.980469 C 55.246094 41.980469 42.65625 54.570312 42.65625 70.105469 C 42.65625 85.636719 55.246094 98.230469 70.78125 98.230469 C 86.3125 98.230469 98.90625 85.636719 98.90625 70.105469 C 98.90625 54.570312 86.3125 41.980469 70.78125 41.980469 Z M 70.78125 41.980469 " clip-rule="nonzero"/></clipPath><clipPath id="97c824d233"><path d="M 0.65625 0.980469 L 56.90625 0.980469 L 56.90625 57.230469 L 0.65625 57.230469 Z M 0.65625 0.980469 " clip-rule="nonzero"/></clipPath><clipPath id="f9d2618bff"><path d="M 28.78125 0.980469 C 13.246094 0.980469 0.65625 13.570312 0.65625 29.105469 C 0.65625 44.636719 13.246094 57.230469 28.78125 57.230469 C 44.3125 57.230469 56.90625 44.636719 56.90625 29.105469 C 56.90625 13.570312 44.3125 0.980469 28.78125 0.980469 Z M 28.78125 0.980469 " clip-rule="nonzero"/></clipPath><clipPath id="f797cade1e"><rect x="0" width="57" y="0" height="58"/></clipPath><clipPath id="8471018891"><path d="M 42.65625 176.722656 L 98.90625 176.722656 L 98.90625 232.972656 L 42.65625 232.972656 Z M 42.65625 176.722656 " clip-rule="nonzero"/></clipPath><clipPath id="200c560fb3"><path d="M 70.78125 176.722656 C 55.246094 176.722656 42.65625 189.316406 42.65625 204.847656 C 42.65625 220.382812 55.246094 232.972656 70.78125 232.972656 C 86.3125 232.972656 98.90625 220.382812 98.90625 204.847656 C 98.90625 189.316406 86.3125 176.722656 70.78125 176.722656 Z M 70.78125 176.722656 " clip-rule="nonzero"/></clipPath><clipPath id="f283b58d4c"><path d="M 0.65625 0.722656 L 56.90625 0.722656 L 56.90625 56.972656 L 0.65625 56.972656 Z M 0.65625 0.722656 " clip-rule="nonzero"/></clipPath><clipPath id="423b5abb86"><path d="M 28.78125 0.722656 C 13.246094 0.722656 0.65625 13.316406 0.65625 28.847656 C 0.65625 44.382812 13.246094 56.972656 28.78125 56.972656 C 44.3125 56.972656 56.90625 44.382812 56.90625 28.847656 C 56.90625 13.316406 44.3125 0.722656 28.78125 0.722656 Z M 28.78125 0.722656 " clip-rule="nonzero"/></clipPath><clipPath id="272d01a085"><rect x="0" width="57" y="0" height="57"/></clipPath><clipPath id="c128449d02"><path d="M 195.097656 212.285156 L 251.347656 212.285156 L 251.347656 268.535156 L 195.097656 268.535156 Z M 195.097656 212.285156 " clip-rule="nonzero"/></clipPath><clipPath id="30578f7c6b"><path d="M 223.222656 212.285156 C 207.6875 212.285156 195.097656 224.875 195.097656 240.410156 C 195.097656 255.941406 207.6875 268.535156 223.222656 268.535156 C 238.753906 268.535156 251.347656 255.941406 251.347656 240.410156 C 251.347656 224.875 238.753906 212.285156 223.222656 212.285156 Z M 223.222656 212.285156 " clip-rule="nonzero"/></clipPath><clipPath id="9fb57961ef"><path d="M 0.0976562 0.285156 L 56.347656 0.285156 L 56.347656 56.535156 L 0.0976562 56.535156 Z M 0.0976562 0.285156 " clip-rule="nonzero"/></clipPath><clipPath id="d841a29110"><path d="M 28.222656 0.285156 C 12.6875 0.285156 0.0976562 12.875 0.0976562 28.410156 C 0.0976562 43.941406 12.6875 56.535156 28.222656 56.535156 C 43.753906 56.535156 56.347656 43.941406 56.347656 28.410156 C 56.347656 12.875 43.753906 0.285156 28.222656 0.285156 Z M 28.222656 0.285156 " clip-rule="nonzero"/></clipPath><clipPath id="3653cff8ca"><rect x="0" width="57" y="0" height="57"/></clipPath><clipPath id="ca9b126cd5"><path d="M 195.097656 70.105469 L 251.347656 70.105469 L 251.347656 126.355469 L 195.097656 126.355469 Z M 195.097656 70.105469 " clip-rule="nonzero"/></clipPath><clipPath id="4acf719396"><path d="M 223.222656 70.105469 C 207.6875 70.105469 195.097656 82.695312 195.097656 98.230469 C 195.097656 113.761719 207.6875 126.355469 223.222656 126.355469 C 238.753906 126.355469 251.347656 113.761719 251.347656 98.230469 C 251.347656 82.695312 238.753906 70.105469 223.222656 70.105469 Z M 223.222656 70.105469 " clip-rule="nonzero"/></clipPath><clipPath id="24183aa226"><path d="M 0.0976562 0.105469 L 56.347656 0.105469 L 56.347656 56.355469 L 0.0976562 56.355469 Z M 0.0976562 0.105469 " clip-rule="nonzero"/></clipPath><clipPath id="9332ce7bf2"><path d="M 28.222656 0.105469 C 12.6875 0.105469 0.0976562 12.695312 0.0976562 28.230469 C 0.0976562 43.761719 12.6875 56.355469 28.222656 56.355469 C 43.753906 56.355469 56.347656 43.761719 56.347656 28.230469 C 56.347656 12.695312 43.753906 0.105469 28.222656 0.105469 Z M 28.222656 0.105469 " clip-rule="nonzero"/></clipPath><clipPath id="59a9aac7b9"><rect x="0" width="57" y="0" height="57"/></clipPath></defs><rect x="-30" width="360" fill="#ffffff" y="-29.999999" height="359.999986" fill-opacity="1"/><rect x="-30" width="360" fill="#ffffff" y="-29.999999" height="359.999986" fill-opacity="1"/><g clip-path="url(#6bb93d890a)"><g clip-path="url(#d253f908a2)"><g transform="matrix(1, 0, 0, 1, 42, 41)"><g clip-path="url(#f797cade1e)"><g clip-path="url(#97c824d233)"><g clip-path="url(#f9d2618bff)"><path fill="#000000" d="M 0.65625 0.980469 L 56.90625 0.980469 L 56.90625 57.230469 L 0.65625 57.230469 Z M 0.65625 0.980469 " fill-opacity="1" fill-rule="nonzero"/></g></g></g></g></g></g><g clip-path="url(#8471018891)"><g clip-path="url(#200c560fb3)"><g transform="matrix(1, 0, 0, 1, 42, 176)"><g clip-path="url(#272d01a085)"><g clip-path="url(#f283b58d4c)"><g clip-path="url(#423b5abb86)"><path fill="#000000" d="M 0.65625 0.722656 L 56.90625 0.722656 L 56.90625 56.972656 L 0.65625 56.972656 Z M 0.65625 0.722656 " fill-opacity="1" fill-rule="nonzero"/></g></g></g></g></g></g><g clip-path="url(#c128449d02)"><g clip-path="url(#30578f7c6b)"><g transform="matrix(1, 0, 0, 1, 195, 212)"><g clip-path="url(#3653cff8ca)"><g clip-path="url(#9fb57961ef)"><g clip-path="url(#d841a29110)"><path fill="#000000" d="M 0.0976562 0.285156 L 56.347656 0.285156 L 56.347656 56.535156 L 0.0976562 56.535156 Z M 0.0976562 0.285156 " fill-opacity="1" fill-rule="nonzero"/></g></g></g></g></g></g><g clip-path="url(#ca9b126cd5)"><g clip-path="url(#4acf719396)"><g transform="matrix(1, 0, 0, 1, 195, 70)"><g clip-path="url(#59a9aac7b9)"><g clip-path="url(#24183aa226)"><g clip-path="url(#9332ce7bf2)"><path fill="#000000" d="M 0.0976562 0.105469 L 56.347656 0.105469 L 56.347656 56.355469 L 0.0976562 56.355469 Z M 0.0976562 0.105469 " fill-opacity="1" fill-rule="nonzero"/></g></g></g></g></g></g></svg>