<svg xmlns="http://www.w3.org/2000/svg" xmlns:xlink="http://www.w3.org/1999/xlink" width="400" zoomAndPan="magnify" viewBox="0 0 300 299.999988" height="400" preserveAspectRatio="xMidYMid meet" version="1.0"><defs><clipPath id="c4e7306cbe"><path d="M 68.234375 31.464844 L 124.484375 31.464844 L 124.484375 87.714844 L 68.234375 87.714844 Z M 68.234375 31.464844 " clip-rule="nonzero"/></clipPath><clipPath id="4646dcc794"><path d="M 96.359375 31.464844 C 80.828125 31.464844 68.234375 44.058594 68.234375 59.589844 C 68.234375 75.125 80.828125 87.714844 96.359375 87.714844 C 111.894531 87.714844 124.484375 75.125 124.484375 59.589844 C 124.484375 44.058594 111.894531 31.464844 96.359375 31.464844 Z M 96.359375 31.464844 " clip-rule="nonzero"/></clipPath><clipPath id="ff5d5b4dcd"><path d="M 0.234375 0.464844 L 56.484375 0.464844 L 56.484375 56.714844 L 0.234375 56.714844 Z M 0.234375 0.464844 " clip-rule="nonzero"/></clipPath><clipPath id="6be94f4f80"><path d="M 28.359375 0.464844 C 12.828125 0.464844 0.234375 13.058594 0.234375 28.589844 C 0.234375 44.125 12.828125 56.714844 28.359375 56.714844 C 43.894531 56.714844 56.484375 44.125 56.484375 28.589844 C 56.484375 13.058594 43.894531 0.464844 28.359375 0.464844 Z M 28.359375 0.464844 " clip-rule="nonzero"/></clipPath><clipPath id="5d1b21c80f"><rect x="0" width="57" y="0" height="57"/></clipPath><clipPath id="2790937156"><path d="M 68.234375 212.285156 L 124.484375 212.285156 L 124.484375 268.535156 L 68.234375 268.535156 Z M 68.234375 212.285156 " clip-rule="nonzero"/></clipPath><clipPath id="e935388a42"><path d="M 96.359375 212.285156 C 80.828125 212.285156 68.234375 224.875 68.234375 240.410156 C 68.234375 255.941406 80.828125 268.535156 96.359375 268.535156 C 111.894531 268.535156 124.484375 255.941406 124.484375 240.410156 C 124.484375 224.875 111.894531 212.285156 96.359375 212.285156 Z M 96.359375 212.285156 " clip-rule="nonzero"/></clipPath><clipPath id="65cf357ab3"><path d="M 0.234375 0.285156 L 56.484375 0.285156 L 56.484375 56.535156 L 0.234375 56.535156 Z M 0.234375 0.285156 " clip-rule="nonzero"/></clipPath><clipPath id="1ecc2be98d"><path d="M 28.359375 0.285156 C 12.828125 0.285156 0.234375 12.875 0.234375 28.410156 C 0.234375 43.941406 12.828125 56.535156 28.359375 56.535156 C 43.894531 56.535156 56.484375 43.941406 56.484375 28.410156 C 56.484375 12.875 43.894531 0.285156 28.359375 0.285156 Z M 28.359375 0.285156 " clip-rule="nonzero"/></clipPath><clipPath id="cf7e084cc4"><rect x="0" width="57" y="0" height="57"/></clipPath><clipPath id="edecb109bf"><path d="M 175.515625 62.675781 L 231.765625 62.675781 L 231.765625 118.925781 L 175.515625 118.925781 Z M 175.515625 62.675781 " clip-rule="nonzero"/></clipPath><clipPath id="00520ac2f7"><path d="M 203.640625 62.675781 C 188.105469 62.675781 175.515625 75.269531 175.515625 90.800781 C 175.515625 106.335938 188.105469 118.925781 203.640625 118.925781 C 219.171875 118.925781 231.765625 106.335938 231.765625 90.800781 C 231.765625 75.269531 219.171875 62.675781 203.640625 62.675781 Z M 203.640625 62.675781 " clip-rule="nonzero"/></clipPath><clipPath id="7044fc27b4"><path d="M 0.515625 0.675781 L 56.765625 0.675781 L 56.765625 56.925781 L 0.515625 56.925781 Z M 0.515625 0.675781 " clip-rule="nonzero"/></clipPath><clipPath id="8ca2187cb5"><path d="M 28.640625 0.675781 C 13.105469 0.675781 0.515625 13.269531 0.515625 28.800781 C 0.515625 44.335938 13.105469 56.925781 28.640625 56.925781 C 44.171875 56.925781 56.765625 44.335938 56.765625 28.800781 C 56.765625 13.269531 44.171875 0.675781 28.640625 0.675781 Z M 28.640625 0.675781 " clip-rule="nonzero"/></clipPath><clipPath id="3baef05f99"><rect x="0" width="57" y="0" height="57"/></clipPath><clipPath id="e37ce004f8"><path d="M 68.234375 118.589844 L 124.484375 118.589844 L 124.484375 174.839844 L 68.234375 174.839844 Z M 68.234375 118.589844 " clip-rule="nonzero"/></clipPath><clipPath id="860ab3223a"><path d="M 96.359375 118.589844 C 80.828125 118.589844 68.234375 131.183594 68.234375 146.714844 C 68.234375 162.25 80.828125 174.839844 96.359375 174.839844 C 111.894531 174.839844 124.484375 162.25 124.484375 146.714844 C 124.484375 131.183594 111.894531 118.589844 96.359375 118.589844 Z M 96.359375 118.589844 " clip-rule="nonzero"/></clipPath><clipPath id="bf466a3e81"><path d="M 0.234375 0.589844 L 56.484375 0.589844 L 56.484375 56.839844 L 0.234375 56.839844 Z M 0.234375 0.589844 " clip-rule="nonzero"/></clipPath><clipPath id="e5989395ae"><path d="M 28.359375 0.589844 C 12.828125 0.589844 0.234375 13.183594 0.234375 28.714844 C 0.234375 44.25 12.828125 56.839844 28.359375 56.839844 C 43.894531 56.839844 56.484375 44.25 56.484375 28.714844 C 56.484375 13.183594 43.894531 0.589844 28.359375 0.589844 Z M 28.359375 0.589844 " clip-rule="nonzero"/></clipPath><clipPath id="73d46cf4a2"><rect x="0" width="57" y="0" height="57"/></clipPath><clipPath id="ab7f3ab503"><path d="M 175.515625 181.011719 L 231.765625 181.011719 L 231.765625 237.261719 L 175.515625 237.261719 Z M 175.515625 181.011719 " clip-rule="nonzero"/></clipPath><clipPath id="852aef1908"><path d="M 203.640625 181.011719 C 188.105469 181.011719 175.515625 193.601562 175.515625 209.136719 C 175.515625 224.667969 188.105469 237.261719 203.640625 237.261719 C 219.171875 237.261719 231.765625 224.667969 231.765625 209.136719 C 231.765625 193.601562 219.171875 181.011719 203.640625 181.011719 Z M 203.640625 181.011719 " clip-rule="nonzero"/></clipPath><clipPath id="1c28270d02"><path d="M 0.515625 0.0117188 L 56.765625 0.0117188 L 56.765625 56.261719 L 0.515625 56.261719 Z M 0.515625 0.0117188 " clip-rule="nonzero"/></clipPath><clipPath id="5c9a9041b0"><path d="M 28.640625 0.0117188 C 13.105469 0.0117188 0.515625 12.601562 0.515625 28.136719 C 0.515625 43.667969 13.105469 56.261719 28.640625 56.261719 C 44.171875 56.261719 56.765625 43.667969 56.765625 28.136719 C 56.765625 12.601562 44.171875 0.0117188 28.640625 0.0117188 Z M 28.640625 0.0117188 " clip-rule="nonzero"/></clipPath><clipPath id="e02856c973"><rect x="0" width="57" y="0" height="57"/></clipPath></defs><rect x="-30" width="360" fill="#ffffff" y="-29.999999" height="359.999986" fill-opacity="1"/><rect x="-30" width="360" fill="#ffffff" y="-29.999999" height="359.999986" fill-opacity="1"/><g clip-path="url(#c4e7306cbe)"><g clip-path="url(#4646dcc794)"><g transform="matrix(1, 0, 0, 1, 68, 31)"><g clip-path="url(#5d1b21c80f)"><g clip-path="url(#ff5d5b4dcd)"><g clip-path="url(#6be94f4f80)"><path fill="#000000" d="M 0.234375 0.464844 L 56.484375 0.464844 L 56.484375 56.714844 L 0.234375 56.714844 Z M 0.234375 0.464844 " fill-opacity="1" fill-rule="nonzero"/></g></g></g></g></g></g><g clip-path="url(#2790937156)"><g clip-path="url(#e935388a42)"><g transform="matrix(1, 0, 0, 1, 68, 212)"><g clip-path="url(#cf7e084cc4)"><g clip-path="url(#65cf357ab3)"><g clip-path="url(#1ecc2be98d)"><path fill="#000000" d="M 0.234375 0.285156 L 56.484375 0.285156 L 56.484375 56.535156 L 0.234375 56.535156 Z M 0.234375 0.285156 " fill-opacity="1" fill-rule="nonzero"/></g></g></g></g></g></g><g clip-path="url(#edecb109bf)"><g clip-path="url(#00520ac2f7)"><g transform="matrix(1, 0, 0, 1, 175, 62)"><g clip-path="url(#3baef05f99)"><g clip-path="url(#7044fc27b4)"><g clip-path="url(#8ca2187cb5)"><path fill="#000000" d="M 0.515625 0.675781 L 56.765625 0.675781 L 56.765625 56.925781 L 0.515625 56.925781 Z M 0.515625 0.675781 " fill-opacity="1" fill-rule="nonzero"/></g></g></g></g></g></g><g clip-path="url(#e37ce004f8)"><g clip-path="url(#860ab3223a)"><g transform="matrix(1, 0, 0, 1, 68, 118)"><g clip-path="url(#73d46cf4a2)"><g clip-path="url(#bf466a3e81)"><g clip-path="url(#e5989395ae)"><path fill="#000000" d="M 0.234375 0.589844 L 56.484375 0.589844 L 56.484375 56.839844 L 0.234375 56.839844 Z M 0.234375 0.589844 " fill-opacity="1" fill-rule="nonzero"/></g></g></g></g></g></g><g clip-path="url(#ab7f3ab503)"><g clip-path="url(#852aef1908)"><g transform="matrix(1, 0, 0, 1, 175, 181)"><g clip-path="url(#e02856c973)"><g clip-path="url(#1c28270d02)"><g clip-path="url(#5c9a9041b0)"><path fill="#000000" d="M 0.515625 0.0117188 L 56.765625 0.0117188 L 56.765625 56.261719 L 0.515625 56.261719 Z M 0.515625 0.0117188 " fill-opacity="1" fill-rule="nonzero"/></g></g></g></g></g></g></svg>